<svg width="20" height="20" viewBox="0 0 20 20" fill="none" xmlns="http://www.w3.org/2000/svg">
<path d="M2.49805 5H4.16471H17.498" stroke="#2C2C2C" stroke-width="1.66667" stroke-linecap="round" stroke-linejoin="round"/>
<path d="M15.8307 4.99996V16.6666C15.8307 17.1087 15.6551 17.5326 15.3426 17.8451C15.03 18.1577 14.6061 18.3333 14.1641 18.3333H5.83073C5.3887 18.3333 4.96478 18.1577 4.65222 17.8451C4.33966 17.5326 4.16406 17.1087 4.16406 16.6666V4.99996M6.66406 4.99996V3.33329C6.66406 2.89127 6.83966 2.46734 7.15222 2.15478C7.46478 1.84222 7.8887 1.66663 8.33073 1.66663H11.6641C12.1061 1.66663 12.53 1.84222 12.8426 2.15478C13.1551 2.46734 13.3307 2.89127 13.3307 3.33329V4.99996" stroke="#2C2C2C" stroke-width="1.66667" stroke-linecap="round" stroke-linejoin="round"/>
<path d="M8.33203 9.16663V14.1666" stroke="#2C2C2C" stroke-width="1.66667" stroke-linecap="round" stroke-linejoin="round"/>
<path d="M11.6641 9.16663V14.1666" stroke="#2C2C2C" stroke-width="1.66667" stroke-linecap="round" stroke-linejoin="round"/>
</svg>
